PathFileType	4	(X/Y/Z)	C:/Users/beibeiliu/ov580/test_trc/User3\sequence.34_training_dense_left.trc
DataRate	CameraRate	NumFrames	NumMarkers	Units	OrigDataRate	OrigDataStartFrame	OrigNumFrames
120	120	11	19	mm	120	126	250
Frame#	Time	ThumbCMC			ThumbMCP			ThumbIP			ThumbTip			IndexMCP			IndexPIP			IndexTip			MiddleMCP			MiddlePIP			MiddleTip			RingMCP			RingPIP			RingTip			PinkyMCP			PinkyPIP			PinkyTip			BackHand1			BackHand2			BackHand3	
		X0	Y0	Z0	X1	Y1	Z1	X2	Y2	Z2	X3	Y3	Z3	X4	Y4	Z4	X5	Y5	Z5	X6	Y6	Z6	X7	Y7	Z7	X8	Y8	Z8	X9	Y9	Z9	X10	Y10	Z10	X11	Y11	Z11	X12	Y12	Z12	X13	Y13	Z13	X14	Y14	Z14	X15	Y15	Z15	X16	Y16	Z16	X17	Y17	Z17	X18	Y18	Z18	
125	1.04167	-183.486	-22.6775	21.9948	-157.505	2.03291	11.9515	-127.968	10.7348	1.67152	-102.175	2.20563	2.49303	-155.323	-37.0668	-43.7293	-148.099	-27.4859	-67.7222	-136.368	-18.3958	-90.6616	-127.052	-46.5356	-42.1587	-110.441	-36.2417	-60.2188	-92.5821	-21.5539	-81.4537	-110.145	-36.8113	-11.8504	-107.14	-5.26727	-0.0201442	-126.947	-7.33756	26.9518	-104.469	-40.8796	9.68958	-103.223	-12.4457	15.6414	-118.262	-0.402706	36.3681	-144.754	-74.8677	14.9063	-162.729	-80.3625	39.3015	-180.812	-61.7165	14.1673	
126	1.05	-183.389	-22.433	21.9065	-158.232	-1.00433	11.8453	-126.283	9.93918	-1.67575	-101.945	0.77253	1.36524	-154.028	-35.8424	-49.2214	-147.203	-25.8804	-69.1861	-133.011	-16.4712	-92.0876	-128.803	-49.1027	-38.1033	-116.726	-36.2823	-60.3686	-98.6073	-21.008	-81.5723	-108.599	-33.5693	-14.0854	-106.107	-8.24397	-1.38092	-126.241	-6.43869	23.6177	-102.571	-41.6062	7.8931	-102.736	-15.1797	11.2702	-119.289	-2.22841	34.3664	-145.253	-75.7544	11.219	-163.822	-79.2555	42.5901	-178.242	-64.5142	11.7638	
127	1.05833	-185.105	-25.192	20.3759	-160.087	1.91456	8.20071	-130.291	6.65093	-1.82261	-100.395	-0.405818	-2.37559	-150.711	-37.7527	-48.4452	-145.199	-26.2539	-68.3985	-131.275	-16.0762	-91.49	-129.829	-46.2406	-44.4412	-114.419	-34.1908	-62.9325	-96.3464	-18.3377	-83.7784	-111.735	-33.6455	-15.4958	-106.336	-8.59709	-2.32922	-132.344	-6.80196	22.7529	-102.875	-40.3929	6.10313	-100.593	-13.7861	13.6789	-121.266	-1.99092	32.9101	-147.892	-75.8452	14.5778	-161.251	-81.5987	37.6805	-176.663	-66.2535	11.0402	
128	1.06667	-186.074	-28.1388	20.2378	-162.07	-1.82278	5.89994	-131.895	4.99047	-5.57789	-106.702	1.31449	-4.04109	-150.416	-41.0228	-45.5852	-140.546	-27.7929	-68.7953	-132.968	-15.6247	-86.3427	-127.599	-46.8876	-43.6942	-116.52	-33.4978	-64.0597	-97.8879	-15.2922	-81.288	-111.349	-32.8585	-16.0747	-108.355	-7.93246	-4.63275	-133.511	-8.61121	22.4784	-107.067	-41.3847	4.256	-103.383	-12.077	12.2453	-126.017	-2.71444	32.0133	-144.253	-75.915	13.6958	-160.704	-83.0916	41.5254	-180.679	-68.1501	13.1743	
129	1.075	-187.243	-29.062	19.5564	-162.427	-4.98043	5.06617	-131.406	1.84197	-8.3472	-110.871	-2.08959	-5.10348	-153.173	-41.2873	-45.0378	-138.25	-26.976	-68.6151	-128.326	-15.8398	-83.4636	-128.01	-49.2261	-40.1569	-116.527	-31.2278	-62.4242	-99.6289	-11.7581	-79.3246	-113.003	-34.8687	-14.9409	-109.88	-8.42097	-2.86425	-133.105	-10.2632	22.3948	-105.358	-41.8655	4.06836	-106.842	-13.1862	9.6961	-127.286	-4.0278	31.7796	-145.83	-77.9404	14.6748	-162.774	-83.0784	40.6001	-180.987	-67.7157	11.3463	
130	1.08333	-186.042	-29.8721	18.2655	-161.234	-5.66592	1.53091	-131.552	1.09959	-8.02321	-107.074	-3.40404	-7.55022	-152.864	-41.2605	-44.7383	-135.547	-28.6603	-64.9331	-120.141	-14.3522	-80.9259	-131.647	-47.587	-42.183	-117.499	-31.7661	-60.0978	-101.604	-9.62679	-75.8483	-114.694	-40.6742	-14.0029	-114.613	-7.50895	-3.07584	-136.249	-11.9281	22.9809	-108.424	-41.0742	2.49571	-108.598	-15.8949	9.71112	-127.001	-9.21005	33.2303	-144.283	-80.0797	12.0557	-161.572	-82.1523	41.3921	-182.757	-69.0892	14.346	
131	1.09167	-185.88	-31.335	21.0178	-161.473	-7.75894	3.65272	-133.891	0.54265	-7.23073	-107.593	-6.4164	-5.83914	-149.377	-42.0384	-45.7938	-136.895	-30.7109	-62.5175	-118.583	-17.8009	-76.3258	-130.185	-49.0283	-43.2925	-116.739	-31.7573	-59.9999	-97.4809	-9.29382	-75.1216	-114.925	-39.8333	-14.1892	-110.606	-11.1817	-1.10606	-131.07	-13.4317	24.3023	-110.874	-43.8993	2.24719	-108.101	-18.0729	13.0443	-128.153	-12.1862	37.8519	-145.334	-81.2959	15.6635	-164.47	-84.7945	39.9828	-182.052	-70.2567	15.5322	
132	1.1	-186.061	-31.3717	18.8264	-161.253	-5.37629	1.74721	-132.323	-0.88662	-9.58765	-108.764	-5.6162	-7.4017	-149.031	-43.8542	-44.1731	-133.568	-32.2234	-63.0856	-120.32	-18.9043	-78.4711	-130.696	-48.6048	-43.9498	-115.606	-32.6536	-60.0963	-97.9105	-9.83109	-77.4652	-118.028	-38.4675	-17.206	-111.858	-11.9309	-0.695744	-133.482	-11.2827	22.5547	-111.308	-44.4677	2.16495	-110.691	-17.7685	13.511	-129.045	-15.1518	37.1738	-147.16	-79.1466	12.178	-166.909	-84.6423	42.9454	-182.361	-69.9241	9.38807	
133	1.10833	-187.881	-28.6594	17.4273	-164.34	-5.0117	3.58411	-133.931	-1.19186	-7.37692	-105.379	-7.49575	-8.9993	-153.521	-43.952	-44.9602	-136.895	-32.3864	-63.5768	-122.253	-19.3713	-82.279	-132.903	-50.3698	-42.8531	-121.993	-32.9442	-62.2599	-101.991	-16.0547	-78.8992	-115.556	-44.2578	-14.2524	-112.277	-13.4297	-5.148	-133.636	-11.6305	23.0562	-108.225	-46.0928	3.91776	-106.72	-19.8139	13.9632	-126.421	-13.8278	33.4416	-150.904	-82.3055	15.1365	-166.168	-85.4681	42.1557	-183.032	-70.8921	13.7215	
134	1.11667	-187.476	-29.2114	22.155	-159.767	-8.59194	3.89324	-132.176	-2.69099	-7.26308	-107.409	-7.7271	-6.99847	-155.551	-45.1716	-45.2844	-144.594	-30.7662	-70.317	-128.933	-23.7984	-84.2853	-136.929	-51.7477	-44.3141	-123.279	-39.7978	-62.1217	-106.916	-18.6639	-85.4183	-116.239	-44.0444	-15.3558	-112.069	-13.2606	-5.05772	-131.586	-13.0087	24.8456	-107.092	-44.3605	1.88533	-110.508	-18.3346	11.5432	-128.105	-11.4696	32.5992	-147.936	-80.0382	12.3268	-166.178	-85.5922	37.4479	-184.417	-70.21	11.0516	
135	1.125	-189.199	-29.2881	23.9376	-162.754	-5.80332	6.29434	-131.61	-1.17863	-7.19111	-105.821	-4.93898	-8.61357	-157.777	-44.7299	-49.3982	-147.574	-35.8249	-71.6364	-136.749	-28.3039	-91.6689	-137.234	-54.4859	-43.7089	-125.769	-42.6482	-63.9369	-102.609	-28.018	-88.4175	-119.616	-40.6354	-18.3671	-110.545	-13.4905	-3.14249	-132.564	-11.4074	21.5703	-111.549	-48.386	3.13951	-108.637	-18.5269	11.9774	-124.579	-9.00499	33.0043	-151.179	-80.6394	13.1088	-161.251	-85.695	40.2566	-184.458	-69.2477	12.9353	
